<?xml version="1.0" encoding="UTF-8"?><svg id="Layer_1" xmlns="http://www.w3.org/2000/svg" viewBox="0 0 363.7 363.72"><defs><style>.cls-1{fill:#f0513c;}.cls-2{fill:#fff;}.cls-3,.cls-4{fill:#231f20;}.cls-4{fill-rule:evenodd;}</style></defs><path class="cls-1" d="M0,181.86C0,81.42,81.42,0,181.85,0s181.85,81.42,181.85,181.86-81.42,181.86-181.85,181.86S0,282.3,0,181.86H0Z"/><path class="cls-2" d="M186.79,62.78c0-4.39,3.56-7.96,7.95-7.96s7.95,3.56,7.95,7.96-3.56,7.96-7.95,7.96-7.95-3.56-7.95-7.96h0Z"/><path class="cls-2" d="M253.72,62.78c0-4.39,3.56-7.96,7.95-7.96s7.96,3.56,7.96,7.96-3.56,7.96-7.96,7.96-7.95-3.56-7.95-7.96h0Z"/><path class="cls-2" d="M201.43,78.22c0-4.39,3.56-7.96,7.95-7.96s7.95,3.56,7.95,7.96-3.56,7.96-7.95,7.96-7.95-3.56-7.95-7.96h0Z"/><path class="cls-2" d="M238.39,78.22c0-4.39,3.56-7.96,7.95-7.96s7.95,3.56,7.95,7.96-3.56,7.96-7.95,7.96-7.95-3.56-7.95-7.96h0Z"/><path class="cls-2" d="M219.91,78.22c0-4.39,3.56-7.96,7.95-7.96s7.95,3.56,7.95,7.96-3.56,7.96-7.95,7.96-7.95-3.56-7.95-7.96h0Z"/><path class="cls-2" d="M201.43,96.35c0-4.39,3.56-7.96,7.95-7.96s7.95,3.56,7.95,7.96-3.56,7.96-7.95,7.96-7.95-3.56-7.95-7.96h0Z"/><path class="cls-2" d="M201.43,114.13c0-4.39,3.56-7.96,7.95-7.96s7.95,3.56,7.95,7.96-3.56,7.96-7.95,7.96-7.95-3.56-7.95-7.96h0Z"/><path class="cls-2" d="M219.91,114.13c0-4.39,3.56-7.96,7.95-7.96s7.95,3.56,7.95,7.96-3.56,7.96-7.95,7.96-7.95-3.56-7.95-7.96h0Z"/><path class="cls-2" d="M238.39,114.13c0-4.39,3.56-7.96,7.95-7.96s7.95,3.56,7.95,7.96-3.56,7.96-7.95,7.96-7.95-3.56-7.95-7.96h0Z"/><path class="cls-2" d="M238.39,96.35c0-4.39,3.56-7.96,7.95-7.96s7.95,3.56,7.95,7.96-3.56,7.96-7.95,7.96-7.95-3.56-7.95-7.96h0Z"/><path class="cls-2" d="M253.72,128.89c0-4.39,3.56-7.96,7.95-7.96s7.96,3.56,7.96,7.96-3.56,7.96-7.96,7.96-7.95-3.56-7.95-7.96h0Z"/><path class="cls-2" d="M186.79,128.89c0-4.39,3.56-7.96,7.95-7.96s7.95,3.56,7.95,7.96-3.56,7.96-7.95,7.96-7.95-3.56-7.95-7.96h0Z"/><path class="cls-2" d="M146.26,139.11c0-2.13,1.73-3.86,3.86-3.86s3.86,1.73,3.86,3.86-1.73,3.86-3.86,3.86-3.86-1.73-3.86-3.86h0Z"/><path class="cls-2" d="M178.7,139.11c0-2.13,1.73-3.86,3.86-3.86s3.86,1.73,3.86,3.86-1.73,3.86-3.86,3.86-3.86-1.73-3.86-3.86h0Z"/><path class="cls-2" d="M153.35,146.59c0-2.13,1.73-3.86,3.86-3.86s3.86,1.73,3.86,3.86-1.73,3.86-3.86,3.86-3.86-1.73-3.86-3.86h0Z"/><path class="cls-2" d="M171.26,146.59c0-2.13,1.73-3.86,3.86-3.86s3.86,1.73,3.86,3.86-1.73,3.86-3.86,3.86-3.86-1.73-3.86-3.86h0Z"/><path class="cls-2" d="M162.31,146.59c0-2.13,1.73-3.86,3.86-3.86s3.86,1.73,3.86,3.86-1.73,3.86-3.86,3.86-3.86-1.73-3.86-3.86h0Z"/><path class="cls-2" d="M153.35,155.37c0-2.13,1.73-3.86,3.86-3.86s3.86,1.73,3.86,3.86-1.73,3.86-3.86,3.86-3.86-1.73-3.86-3.86h0Z"/><path class="cls-2" d="M153.35,163.99c0-2.13,1.73-3.86,3.86-3.86s3.86,1.73,3.86,3.86-1.73,3.86-3.86,3.86-3.86-1.73-3.86-3.86h0Z"/><path class="cls-2" d="M162.31,163.99c0-2.13,1.73-3.86,3.86-3.86s3.86,1.73,3.86,3.86-1.73,3.86-3.86,3.86-3.86-1.73-3.86-3.86h0Z"/><path class="cls-2" d="M171.26,163.99c0-2.13,1.73-3.86,3.86-3.86s3.86,1.73,3.86,3.86-1.73,3.86-3.86,3.86-3.86-1.73-3.86-3.86h0Z"/><path class="cls-2" d="M171.26,155.37c0-2.13,1.73-3.86,3.86-3.86s3.86,1.73,3.86,3.86-1.73,3.86-3.86,3.86-3.86-1.73-3.86-3.86h0Z"/><path class="cls-2" d="M178.7,171.15c0-2.13,1.73-3.86,3.86-3.86s3.86,1.73,3.86,3.86-1.73,3.86-3.86,3.86-3.86-1.73-3.86-3.86h0Z"/><path class="cls-2" d="M146.26,171.15c0-2.13,1.73-3.86,3.86-3.86s3.86,1.73,3.86,3.86-1.73,3.86-3.86,3.86-3.86-1.73-3.86-3.86h0Z"/><path class="cls-2" d="M123.51,178.96c0-1.06,.86-1.91,1.91-1.91s1.91,.86,1.91,1.91-.86,1.91-1.91,1.91-1.91-.86-1.91-1.91h0Z"/><path class="cls-2" d="M139.61,178.96c0-1.06,.86-1.91,1.91-1.91s1.91,.86,1.91,1.91-.86,1.91-1.91,1.91-1.91-.86-1.91-1.91h0Z"/><path class="cls-2" d="M127.03,182.67c0-1.06,.86-1.91,1.91-1.91s1.91,.86,1.91,1.91-.86,1.91-1.91,1.91-1.91-.86-1.91-1.91h0Z"/><path class="cls-2" d="M135.92,182.67c0-1.06,.86-1.91,1.91-1.91s1.91,.86,1.91,1.91-.86,1.91-1.91,1.91-1.91-.86-1.91-1.91h0Z"/><path class="cls-2" d="M131.48,182.67c0-1.06,.86-1.91,1.91-1.91s1.91,.86,1.91,1.91-.86,1.91-1.91,1.91-1.91-.86-1.91-1.91h0Z"/><path class="cls-2" d="M127.03,187.03c0-1.06,.86-1.91,1.91-1.91s1.91,.86,1.91,1.91-.86,1.91-1.91,1.91-1.91-.86-1.91-1.91h0Z"/><path class="cls-2" d="M127.03,191.31c0-1.06,.86-1.91,1.91-1.91s1.91,.86,1.91,1.91-.86,1.91-1.91,1.91-1.91-.86-1.91-1.91h0Z"/><path class="cls-2" d="M131.48,191.31c0-1.06,.86-1.91,1.91-1.91s1.91,.86,1.91,1.91-.86,1.91-1.91,1.91-1.91-.86-1.91-1.91h0Z"/><path class="cls-2" d="M135.92,191.31c0-1.06,.86-1.91,1.91-1.91s1.91,.86,1.91,1.91-.86,1.91-1.91,1.91-1.91-.86-1.91-1.91h0Z"/><path class="cls-2" d="M135.92,187.03c0-1.06,.86-1.91,1.91-1.91s1.91,.86,1.91,1.91-.86,1.91-1.91,1.91-1.91-.86-1.91-1.91h0Z"/><path class="cls-2" d="M139.61,194.86c0-1.06,.86-1.91,1.91-1.91s1.91,.86,1.91,1.91-.86,1.91-1.91,1.91-1.91-.86-1.91-1.91h0Z"/><path class="cls-2" d="M123.51,194.86c0-1.06,.86-1.91,1.91-1.91s1.91,.86,1.91,1.91-.86,1.91-1.91,1.91-1.91-.86-1.91-1.91h0Z"/><path class="cls-4" d="M107.55,275.26c0,3.69-1.66,5.53-4.99,5.53h-4.99v-20.03h-9.98v20.03h-4.99c-1.29,0-2.45-.57-3.47-1.72-1.02-1.15-1.53-2.42-1.53-3.81v-77.54c0-3.6,1.66-5.41,4.99-5.41h19.97c3.33,0,4.99,1.8,4.99,5.41v77.54h0Zm-9.98-25.44v-46.57h-9.98v46.57h9.98Z"/><path class="cls-3" d="M131.68,275.26c0,3.69-1.66,5.53-4.99,5.53h-4.99v-66.36h4.99c3.33,0,4.99,1.84,4.99,5.53v55.3h0Z"/><path class="cls-3" d="M163.3,275.32c0,3.65-1.66,5.47-4.99,5.47h-7.49c-1.29,0-2.45-.55-3.47-1.66-1.02-1.11-1.53-2.36-1.53-3.75v-44.36c0-3.69,1.66-5.53,4.99-5.53h4.99v24.33h13.03v10.94h-13.03v9.09h7.49v5.47h0Z"/><path class="cls-4" d="M207.96,288.86c0,3.65-1.66,5.47-4.99,5.47h-19.96c-1.29,0-2.45-.55-3.47-1.66-1.02-1.11-1.53-2.36-1.53-3.75v-40.06c0-3.6,1.66-5.41,4.99-5.41h19.96c3.33,0,4.99,1.8,4.99,5.41v20.03c0,2.7-1.2,4.42-3.6,5.16-.92,.25-3.05,.37-6.38,.37h-9.98v8.97h19.97v5.47h0Zm-9.98-25.37v-9.09h-9.98v9.09h9.98Z"/><path class="cls-3" d="M244.19,260.76h-14.42v20.03h-4.99c-1.29,0-2.45-.57-3.47-1.72-1.02-1.15-1.53-2.42-1.53-3.81v-19.91c0-3.69,1.66-5.53,4.99-5.53h14.42c1.39,0,2.57,.53,3.54,1.58,.97,1.05,1.46,2.35,1.46,3.89v5.47h0Z"/><path class="cls-4" d="M282.9,288.8c0,3.69-1.66,5.53-4.99,5.53h-19.97c-1.29,0-2.45-.55-3.47-1.65-1.02-1.1-1.53-2.35-1.53-3.73v-19.95c0-2.94,1.11-4.73,3.33-5.39,.46-.08,2.68-.12,6.66-.12h9.98v-9.09h-19.96v-5.47c0-3.65,1.66-5.47,4.99-5.47h19.97c3.33,0,4.99,1.8,4.99,5.41v39.94h0Zm-9.98-5.41v-8.97h-9.98v8.97h9.98Z"/></svg>